# xmcd
#
# Track frame offsets: 
#        150
#        12405
#        25577
#        39647
#        50993
#        65948
#        79874
#        93238
#        107312
#        121990
#        135337
#        148880
#        162732
#        177126
#        190252
#        201175
#
# Disc length: 2879 seconds
#
# Revision: 3
# Processed by: cddbd v1.5.2PL0 Copyright (c) Steve Scherf et al.
# Submitted via: ExactAudioCopyFreeDBPlugin 1.0
#
DISCID=e30b3d10
DTITLE=Ella Fitzgerald and Billie Holiday - Side By Side-Ella Fitzgera
DTITLE=ld
DYEAR=2005
DGENRE=Jazz
TTITLE0=Ella Fitzgerald - It's Only a Paper Moon
TTITLE1=Ella Fitzgerald - This Love of Mine
TTITLE2=Ella Fitzgerald - Time Alone Will Tell
TTITLE3=Ella Fitzgerald - Three Little Words
TTITLE4=Ella Fitzgerald - Undecided
TTITLE5=Ella Fitzgerald - Taking a Chance on Love
TTITLE6=Ella Fitzgerald - Out of Nowhere
TTITLE7=Ella Fitzgerald - Don't Worry 'Bout Me
TTITLE8=Ella Fitzgerald - And Her Tears Flowed Like Wine
TTITLE9=Ella Fitzgerald - You Can't Be Mine
TTITLE10=Ella Fitzgerald - My Man
TTITLE11=Ella Fitzgerald - If You Ever Change Your Mind
TTITLE12=Ella Fitzgerald - Somebody Nobody Knows
TTITLE13=Ella Fitzgerald - It's Wonderful
TTITLE14=Ella Fitzgerald - The Muffin Man
TTITLE15=Ella Fitzgerald - My Last Goodbye
EXTD=YEAR: 2005
EXTT0=
EXTT1=
EXTT2=
EXTT3=
EXTT4=
EXTT5=
EXTT6=
EXTT7=
EXTT8=
EXTT9=
EXTT10=
EXTT11=
EXTT12=
EXTT13=
EXTT14=
EXTT15=
PLAYORDER=
